/* XPM */
static char *top_left_inactive[] = {
/* columns rows colors chars-per-pixel */
"18 51 4 1 ",
"  c None",
". c #44464A s inactive_color_2",
"X c #44474B s inactive_color_2",
"o c #44484C s inactive_color_2",
/* pixels */
"               ...",
"           oooo...",
"          o.......",
"       o..........",
"      o.oo...o....",
"      .......o....",
"    o.............",
"   o..............",
"   ...............",
" o......oo........",
" o..........oo....",
" o.....o..........",
".......o..........",
"........o.........",
"........o.......oo",
"............o...o.",
"............o.....",
"............o.....",
"..o.....oo........",
"..o....o..........",
".oo....o..........",
"............oo....",
"........o.........",
"..................",
"..................",
"......oo.........o",
"........o....o....",
"o.......o.........",
"o.................",
"o.................",
"......oo......o...",
".........oo...o...",
".........o...o....",
".........o........",
"..................",
".o.....o..........",
"..o....o..o...ooo.",
"..o.......o.....o.",
"..................",
"..................",
"..................",
"..................",
"..........o.......",
"..o....o..o....o..",
".o.....o..........",
".o...............o",
".........o.......o",
".........o...oo...",
"..................",
"..................",
"oo..oo......o....."
};
