/* XPM */
static char *top_right_active[] = {
/* columns rows colors chars-per-pixel */
"18 51 3 1 ",
"  c None",
". c #3A3D41 s active_color_2",
"X c #3A3E42",
/* pixels */
"...               ",
".......           ",
"........          ",
"...........       ",
"............      ",
"............      ",
"..............    ",
"...............   ",
"...............   ",
"................. ",
"................. ",
"................. ",
"..................",
"..................",
"..................",
"..................",
"..................",
"..................",
"..................",
"..................",
"..................",
"..................",
"..................",
"..................",
"..................",
"..................",
"..................",
"..................",
"..................",
"..................",
"..................",
"..................",
"..................",
"..................",
"..................",
"..................",
"..................",
"..................",
"..................",
"..................",
"..................",
"..................",
"..................",
"..................",
"..................",
"..................",
"..................",
"..................",
"..................",
"..................",
".................."
};
