<?xml version="1.0" encoding="UTF-8" standalone="no"?>
<svg
   width="600"
   height="200"
   version="1.1"
   viewBox="0 0 600 200"
   id="svg86"
   sodipodi:docname="assets-png-Light.svg"
   inkscape:version="1.3.2 (091e20ef0f, 2023-11-25)"
   xmlns:inkscape="http://www.inkscape.org/namespaces/inkscape"
   xmlns:sodipodi="http://sodipodi.sourceforge.net/DTD/sodipodi-0.dtd"
   xmlns:xlink="http://www.w3.org/1999/xlink"
   xmlns="http://www.w3.org/2000/svg"
   xmlns:svg="http://www.w3.org/2000/svg">
  <sodipodi:namedview
     id="namedview86"
     pagecolor="#dbdbdb"
     bordercolor="#000000"
     borderopacity="0.25"
     inkscape:showpageshadow="2"
     inkscape:pageopacity="0.0"
     inkscape:pagecheckerboard="0"
     inkscape:deskcolor="#d1d1d1"
     inkscape:zoom="1.045"
     inkscape:cx="300"
     inkscape:cy="100"
     inkscape:window-width="1920"
     inkscape:window-height="1019"
     inkscape:window-x="0"
     inkscape:window-y="33"
     inkscape:window-maximized="1"
     inkscape:current-layer="svg86" />
  <defs
     id="defs2">
    <linearGradient
       id="linearGradient2"
       x1="401"
       x2="386.78"
       y1="93"
       y2="102.06"
       gradientUnits="userSpaceOnUse">
      <stop
         stop-color="#ffffff"
         offset="0"
         id="stop1" />
      <stop
         stop-color="#ffffff"
         stop-opacity="0"
         offset="1"
         id="stop2" />
    </linearGradient>
    <linearGradient
       id="linearGradient30"
       x1="401"
       x2="388"
       y1="93"
       y2="103"
       gradientUnits="userSpaceOnUse"
       xlink:href="#linearGradient2" />
    <linearGradient
       id="linearGradient38"
       x1="401"
       x2="388"
       y1="93"
       y2="103"
       gradientTransform="translate(14)"
       gradientUnits="userSpaceOnUse"
       xlink:href="#linearGradient2" />
  </defs>
  <g
     id="title-active"
     transform="matrix(.1875 0 0 1 386.24 -542.36)">
    <rect
       x="21"
       y="585.36"
       width="36"
       height="34"
       fill="none"
       id="rect2" />
    <rect
       x="21"
       y="585.36"
       width="36"
       height="1"
       fill="#ffffff"
       opacity=".75"
       id="rect3" />
  </g>
  <g
     id="title-inactive"
     transform="matrix(.1875 0 0 1 438.24 -542.36)">
    <rect
       x="21"
       y="585.36"
       width="32"
       height="34"
       fill="none"
       id="rect4" />
    <rect
       x="21"
       y="585.36"
       width="32"
       height="1"
       fill="#ffffff"
       opacity=".5"
       id="rect5" />
  </g>
  <g
     id="close-prelight"
     transform="translate(5,-564.36)">
    <rect
       x="61"
       y="585.36"
       width="36"
       height="34"
       fill="none"
       id="rect6" />
    <rect
       x="61"
       y="585.36"
       width="36"
       height="1"
       fill="#ffffff"
       opacity=".75"
       id="rect7" />
    <circle
       cx="79"
       cy="602.36"
       r="11"
       fill="#303741"
       id="circle7" />
    <path
       d="m75.465 598.33c-0.12775 0-0.2555 0.0486-0.35339 0.14649-0.19578 0.19586-0.19578 0.51116 0 0.70703l3.1816 3.1816-3.1816 3.1816c-0.19578 0.19586-0.19578 0.51116 0 0.70703 0.19578 0.19586 0.51118 0.19586 0.70704 0l3.1816-3.1816 3.1816 3.1816c0.19578 0.19586 0.51114 0.19586 0.70704 0 0.19578-0.19586 0.19578-0.51116 0-0.70703l-3.1816-3.1816 3.1816-3.1816c0.19578-0.19586 0.19578-0.51116 0-0.70703-0.19578-0.19586-0.51118-0.19586-0.70704 0l-3.1816 3.1816-3.1816-3.1816c-0.09789-0.0979-0.22564-0.14649-0.35339-0.14649z"
       fill="#ffffff"
       opacity=".87"
       id="path7" />
  </g>
  <g
     id="maximize-prelight"
     transform="translate(5,-564.36)">
    <rect
       x="61"
       y="626.36"
       width="36"
       height="34"
       fill="none"
       id="rect8" />
    <rect
       x="61"
       y="626.36"
       width="36"
       height="1"
       fill="#ffffff"
       opacity=".75"
       id="rect9" />
    <circle
       cx="79"
       cy="643.36"
       r="11"
       fill="#303741"
       id="circle9" />
    <path
       d="m77 639.36c-1.108 0-2 0.892-2 2v4c0 1.108 0.89201 2 2 2h4c1.108 0 2-0.892 2-2v-4c0-1.108-0.89201-2-2-2zm0 1h4c0.554 0 1 0.44602 1 1v4c0 0.55398-0.44602 1-1 1h-4c-0.55397 0-0.99999-0.44602-0.99999-1v-4c0-0.55398 0.44602-1 0.99999-1z"
       fill="#ffffff"
       opacity=".87"
       id="path9" />
  </g>
  <g
     id="hide-prelight"
     transform="translate(5,-564.36)">
    <rect
       x="61"
       y="667.36"
       width="36"
       height="34"
       fill="none"
       id="rect10" />
    <rect
       x="61"
       y="667.36"
       width="36"
       height="1"
       fill="#ffffff"
       opacity=".75"
       id="rect11" />
    <circle
       cx="79"
       cy="684.36"
       r="11"
       fill="#303741"
       id="circle11" />
    <rect
       x="75"
       y="684.36"
       width="8"
       height="1"
       rx=".5"
       ry=".5"
       fill="#ffffff"
       opacity=".87"
       id="rect12" />
  </g>
  <g
     id="maximize-toggled-prelight"
     transform="translate(5,-564.36)">
    <rect
       x="61"
       y="708.36"
       width="36"
       height="34"
       fill="none"
       id="rect13" />
    <rect
       x="61"
       y="708.36"
       width="36"
       height="1"
       fill="#ffffff"
       opacity=".75"
       id="rect14" />
    <circle
       cx="79"
       cy="725.36"
       r="11"
       fill="#303741"
       id="circle14" />
    <path
       d="m77 723.36c-1.108 0-2 0.892-2 2v2c0 1.108 0.892 2 2 2h2c1.108 0 2-0.892 2-2v-2c0-1.108-0.892-2-2-2zm0 1h2c0.554 0 1 0.446 1 1v2c0 0.554-0.446 1-1 1h-2c-0.554 0-1-0.446-1-1v-2c0-0.554 0.446-1 1-1z"
       fill="#ffffff"
       opacity=".87"
       id="path14" />
    <path
       d="m79 721.36c-1.108 0-2 0.892-2 2h1c0-0.554 0.446-1 1-1h2c0.554 0 1 0.446 1 1v2c0 0.554-0.446 1-1 1v1c1.108 0 2-0.892 2-2v-2c0-1.108-0.892-2-2-2z"
       fill="#ffffff"
       opacity=".35"
       id="path15" />
  </g>
  <g
     id="close-pressed"
     transform="translate(5,-564.36)">
    <rect
       x="101"
       y="585.36"
       width="36"
       height="34"
       fill="none"
       id="rect15" />
    <rect
       x="101"
       y="585.36"
       width="36"
       height="1"
       fill="#ffffff"
       opacity=".75"
       id="rect16" />
    <circle
       cx="119"
       cy="602.36"
       r="11"
       fill="#303741"
       opacity=".8"
       id="circle16" />
    <path
       d="m115.46 598.33c-0.12775 0-0.2555 0.0486-0.35339 0.14649-0.19578 0.19586-0.19578 0.51116 0 0.70703l3.1816 3.1816-3.1816 3.1816c-0.19578 0.19586-0.19578 0.51116 0 0.70703 0.19578 0.19586 0.51118 0.19586 0.70704 0l3.1816-3.1816 3.1816 3.1816c0.19578 0.19586 0.51114 0.19586 0.70704 0 0.19578-0.19586 0.19578-0.51116 0-0.70703l-3.1816-3.1816 3.1816-3.1816c0.19578-0.19586 0.19578-0.51116 0-0.70703-0.19578-0.19586-0.51117-0.19586-0.70704 0l-3.1816 3.1816-3.1816-3.1816c-0.0979-0.0979-0.22564-0.14649-0.35339-0.14649z"
       fill="#ffffff"
       id="path16" />
  </g>
  <g
     id="maximize-pressed"
     transform="translate(5,-564.36)">
    <rect
       x="101"
       y="626.36"
       width="36"
       height="34"
       fill="none"
       id="rect17" />
    <rect
       x="101"
       y="626.36"
       width="36"
       height="1"
       fill="#ffffff"
       opacity=".75"
       id="rect18" />
    <circle
       cx="119"
       cy="643.36"
       r="11"
       fill="#303741"
       opacity=".8"
       id="circle18" />
    <path
       d="m117 639.36c-1.108 0-2 0.892-2 2v4c0 1.108 0.89201 2 2 2h4c1.108 0 2-0.892 2-2v-4c0-1.108-0.89201-2-2-2zm0 1h4c0.554 0 1 0.44602 1 1v4c0 0.55398-0.44602 1-1 1h-4c-0.55397 0-0.99999-0.44602-0.99999-1v-4c0-0.55398 0.44603-1 0.99999-1z"
       fill="#ffffff"
       id="path18" />
  </g>
  <g
     id="hide-pressed"
     transform="translate(5,-564.36)">
    <rect
       x="101"
       y="667.36"
       width="36"
       height="34"
       fill="none"
       id="rect19" />
    <rect
       x="101"
       y="667.36"
       width="36"
       height="1"
       fill="#ffffff"
       opacity=".75"
       id="rect20" />
    <circle
       cx="119"
       cy="684.36"
       r="11"
       fill="#303741"
       opacity=".8"
       id="circle20" />
    <rect
       x="115"
       y="684.36"
       width="8"
       height="1"
       rx=".5"
       ry=".5"
       fill="#ffffff"
       id="rect21" />
  </g>
  <g
     id="maximize-toggled-pressed"
     transform="translate(5,-564.36)">
    <rect
       x="101"
       y="708.36"
       width="36"
       height="34"
       fill="none"
       id="rect22" />
    <rect
       x="101"
       y="708.36"
       width="36"
       height="1"
       fill="#ffffff"
       opacity=".75"
       id="rect23" />
    <circle
       cx="119"
       cy="725.36"
       r="11"
       fill="#303741"
       opacity=".8"
       id="circle23" />
    <path
       d="m117 723.36c-1.108 0-2 0.892-2 2v2c0 1.108 0.892 2 2 2h2c1.108 0 2-0.892 2-2v-2c0-1.108-0.892-2-2-2zm0 1h2c0.554 0 1 0.446 1 1v2c0 0.554-0.446 1-1 1h-2c-0.554 0-1-0.446-1-1v-2c0-0.554 0.446-1 1-1z"
       fill="#ffffff"
       id="path23" />
    <path
       d="m119 721.36c-1.108 0-2 0.892-2 2h1c0-0.554 0.446-1 1-1h2c0.554 0 1 0.446 1 1v2c0 0.554-0.446 1-1 1v1c1.108 0 2-0.892 2-2v-2c0-1.108-0.892-2-2-2z"
       fill="#ffffff"
       opacity=".35"
       id="path24" />
  </g>
  <g
     id="stick-active"
     transform="translate(5,-564.36)">
    <rect
       x="211"
       y="688.36"
       width="36"
       height="34"
       fill="none"
       id="rect24" />
    <rect
       x="211"
       y="688.36"
       width="36"
       height="1"
       fill="#ffffff"
       opacity=".75"
       id="rect25" />
    <path
       d="m229 699.36a6 6 0 0 0-6 6 6 6 0 0 0 6 6 6 6 0 0 0 6-6 6 6 0 0 0-6-6zm0 1a5 5 0 0 1 5 5 5 5 0 0 1-5 5 5 5 0 0 1-5-5 5 5 0 0 1 5-5z"
       fill="#000000"
       opacity=".6"
       id="path25" />
  </g>
  <g
     id="shade-active"
     transform="translate(5,-564.36)">
    <rect
       x="211"
       y="606.36"
       width="36"
       height="34"
       fill="none"
       id="rect26" />
    <rect
       x="211"
       y="606.36"
       width="36"
       height="1"
       fill="#ffffff"
       opacity=".75"
       id="rect27" />
    <path
       d="m229 619.83-6.3633 6.3633 0.70703 0.70703 5.6562-5.6562 5.6562 5.6562 0.70703-0.70703-5.6562-5.6562z"
       fill="#000000"
       opacity=".6"
       id="path27" />
  </g>
  <g
     id="shade-toggled-active"
     transform="translate(5,-564.36)">
    <rect
       x="211"
       y="647.36"
       width="36"
       height="34"
       fill="none"
       id="rect28" />
    <rect
       x="211"
       y="647.36"
       width="36"
       height="1"
       fill="#ffffff"
       opacity=".75"
       id="rect29" />
    <path
       d="m229 667.9-6.3633-6.3633 0.70703-0.70703 5.6562 5.6562 5.6562-5.6562 0.70703 0.70703-5.6562 5.6562z"
       fill="#000000"
       opacity=".6"
       id="path29" />
  </g>
  <g
     id="stick-toggled-active"
     transform="translate(5,-564.36)">
    <rect
       x="211"
       y="730.36"
       width="36"
       height="34"
       fill="none"
       id="rect30" />
    <rect
       x="211"
       y="730.36"
       width="36"
       height="1"
       fill="#ffffff"
       opacity=".75"
       id="rect31" />
    <path
       d="m229 741.36a6 6 0 0 0-6 6 6 6 0 0 0 6 6 6 6 0 0 0 6-6 6 6 0 0 0-6-6zm0 1a5 5 0 0 1 5 5 5 5 0 0 1-5 5 5 5 0 0 1-5-5 5 5 0 0 1 5-5zm0 3a2 2 0 0 0-2 2 2 2 0 0 0 2 2 2 2 0 0 0 2-2 2 2 0 0 0-2-2z"
       fill="#000000"
       opacity=".6"
       id="path31" />
  </g>
  <g
     id="menu-active"
     transform="translate(5,-564.36)">
    <rect
       x="211"
       y="565.36"
       width="36"
       height="34"
       fill="none"
       id="rect32" />
    <rect
       x="211"
       y="565.36"
       width="36"
       height="1"
       fill="#ffffff"
       opacity=".75"
       id="rect33" />
    <path
       d="m224 581.36a1 1 0 0 0-1 1 1 1 0 0 0 1 1 1 1 0 0 0 1-1 1 1 0 0 0-1-1zm5 0a1 1 0 0 0-1 1 1 1 0 0 0 1 1 1 1 0 0 0 1-1 1 1 0 0 0-1-1zm5 0a1 1 0 0 0-1 1 1 1 0 0 0 1 1 1 1 0 0 0 1-1 1 1 0 0 0-1-1z"
       fill="#000000"
       opacity=".6"
       id="path33" />
  </g>
  <g
     id="stick-prelight"
     transform="translate(5,-564.36)">
    <rect
       x="251"
       y="688.36"
       width="36"
       height="34"
       fill="none"
       id="rect34" />
    <rect
       x="251"
       y="688.36"
       width="36"
       height="1"
       fill="#ffffff"
       opacity=".75"
       id="rect35" />
    <circle
       cx="269"
       cy="705.36"
       r="11"
       fill="#ffffff"
       opacity=".75"
       id="circle35" />
    <path
       d="m269 699.36a6 6 0 0 0-6 6 6 6 0 0 0 6 6 6 6 0 0 0 6-6 6 6 0 0 0-6-6zm0 1a5 5 0 0 1 5 5 5 5 0 0 1-5 5 5 5 0 0 1-5-5 5 5 0 0 1 5-5z"
       fill="#000000"
       opacity=".75"
       id="path35" />
  </g>
  <g
     id="shade-prelight"
     transform="translate(5,-564.36)">
    <rect
       x="251"
       y="606.36"
       width="36"
       height="34"
       fill="none"
       id="rect36" />
    <rect
       x="251"
       y="606.36"
       width="36"
       height="1"
       fill="#ffffff"
       opacity=".75"
       id="rect37" />
    <circle
       cx="269"
       cy="623.36"
       r="11"
       fill="#ffffff"
       opacity=".75"
       id="circle37" />
    <path
       d="m269 619.83-6.3633 6.3633 0.70703 0.70703 5.6562-5.6562 5.6562 5.6562 0.70703-0.70703-5.6562-5.6562z"
       fill="#000000"
       opacity=".75"
       id="path37" />
  </g>
  <g
     id="shade-toggled-prelight"
     transform="translate(5,-564.36)">
    <rect
       x="251"
       y="647.36"
       width="36"
       height="34"
       fill="none"
       id="rect38" />
    <rect
       x="251"
       y="647.36"
       width="36"
       height="1"
       fill="#ffffff"
       opacity=".75"
       id="rect39" />
    <circle
       cx="269"
       cy="664.36"
       r="11"
       fill="#ffffff"
       opacity=".75"
       id="circle39" />
    <path
       d="m269 667.9-6.3633-6.3633 0.70703-0.70703 5.6562 5.6562 5.6562-5.6562 0.70703 0.70703-5.6562 5.6562z"
       fill="#000000"
       opacity=".75"
       id="path39" />
  </g>
  <g
     id="stick-toggled-prelight"
     transform="translate(5,-564.36)">
    <rect
       x="251"
       y="730.36"
       width="36"
       height="34"
       fill="none"
       id="rect40" />
    <rect
       x="251"
       y="730.36"
       width="36"
       height="1"
       fill="#ffffff"
       opacity=".75"
       id="rect41" />
    <circle
       cx="269"
       cy="747.36"
       r="11"
       fill="#ffffff"
       opacity=".75"
       id="circle41" />
    <path
       d="m269 741.36a6 6 0 0 0-6 6 6 6 0 0 0 6 6 6 6 0 0 0 6-6 6 6 0 0 0-6-6zm0 1a5 5 0 0 1 5 5 5 5 0 0 1-5 5 5 5 0 0 1-5-5 5 5 0 0 1 5-5zm0 3a2 2 0 0 0-2 2 2 2 0 0 0 2 2 2 2 0 0 0 2-2 2 2 0 0 0-2-2z"
       fill="#000000"
       opacity=".75"
       id="path41" />
  </g>
  <g
     id="menu-prelight"
     transform="translate(5,-564.36)">
    <rect
       x="251"
       y="565.36"
       width="36"
       height="34"
       fill="none"
       id="rect42" />
    <rect
       x="251"
       y="565.36"
       width="36"
       height="1"
       fill="#ffffff"
       opacity=".75"
       id="rect43" />
    <circle
       cx="269"
       cy="582.36"
       r="11"
       fill="#ffffff"
       opacity=".75"
       id="circle43" />
    <path
       d="m264 581.36a1 1 0 0 0-1 1 1 1 0 0 0 1 1 1 1 0 0 0 1-1 1 1 0 0 0-1-1zm5 0a1 1 0 0 0-1 1 1 1 0 0 0 1 1 1 1 0 0 0 1-1 1 1 0 0 0-1-1zm5 0a1 1 0 0 0-1 1 1 1 0 0 0 1 1 1 1 0 0 0 1-1 1 1 0 0 0-1-1z"
       fill="#000000"
       opacity=".75"
       id="path43" />
  </g>
  <g
     id="stick-pressed"
     transform="translate(5,-564.36)">
    <rect
       x="291"
       y="688.36"
       width="36"
       height="34"
       fill="none"
       id="rect44" />
    <rect
       x="291"
       y="688.36"
       width="36"
       height="1"
       fill="#ffffff"
       opacity=".75"
       id="rect45" />
    <circle
       cx="309"
       cy="705.36"
       r="11"
       fill="#ffffff"
       opacity=".6"
       id="circle45" />
    <path
       d="m309 699.36a6 6 0 0 0-6 6 6 6 0 0 0 6 6 6 6 0 0 0 6-6 6 6 0 0 0-6-6zm0 1a5 5 0 0 1 5 5 5 5 0 0 1-5 5 5 5 0 0 1-5-5 5 5 0 0 1 5-5z"
       fill="#000000"
       opacity=".75"
       id="path45" />
  </g>
  <g
     id="shade-pressed"
     transform="translate(5,-564.36)">
    <g
       transform="translate(270,21)"
       id="g47">
      <rect
         x="21"
         y="585.36"
         width="36"
         height="34"
         fill="none"
         id="rect46" />
      <rect
         x="21"
         y="585.36"
         width="36"
         height="1"
         fill="#ffffff"
         opacity=".75"
         id="rect47" />
    </g>
    <circle
       cx="309"
       cy="623.36"
       r="11"
       fill="#ffffff"
       opacity=".6"
       stroke-linecap="round"
       stroke-linejoin="round"
       stroke-width="11"
       id="circle47" />
    <path
       d="m309 619.83-6.3633 6.3633 0.70703 0.70703 5.6562-5.6562 5.6562 5.6562 0.70703-0.70703-5.6562-5.6562z"
       fill="#000000"
       opacity=".75"
       id="path47" />
  </g>
  <g
     id="shade-toggled-pressed"
     transform="translate(5,-564.36)">
    <rect
       x="291"
       y="647.36"
       width="36"
       height="34"
       fill="none"
       id="rect48" />
    <rect
       x="291"
       y="647.36"
       width="36"
       height="1"
       fill="#ffffff"
       opacity=".75"
       id="rect49" />
    <circle
       cx="309"
       cy="664.36"
       r="11"
       fill="#ffffff"
       opacity=".6"
       id="circle49" />
    <path
       d="m309 667.9-6.3633-6.3633 0.70703-0.70703 5.6562 5.6562 5.6562-5.6562 0.70703 0.70703-5.6562 5.6562z"
       fill="#000000"
       opacity=".75"
       id="path49" />
  </g>
  <g
     id="stick-toggled-pressed"
     transform="translate(5,-564.36)">
    <rect
       x="291"
       y="730.36"
       width="36"
       height="34"
       fill="none"
       id="rect50" />
    <rect
       x="291"
       y="730.36"
       width="36"
       height="1"
       fill="#ffffff"
       opacity=".75"
       id="rect51" />
    <circle
       cx="309"
       cy="747.36"
       r="11"
       fill="#ffffff"
       opacity=".6"
       id="circle51" />
    <path
       d="m309 741.36a6 6 0 0 0-6 6 6 6 0 0 0 6 6 6 6 0 0 0 6-6 6 6 0 0 0-6-6zm0 1a5 5 0 0 1 5 5 5 5 0 0 1-5 5 5 5 0 0 1-5-5 5 5 0 0 1 5-5zm0 3a2 2 0 0 0-2 2 2 2 0 0 0 2 2 2 2 0 0 0 2-2 2 2 0 0 0-2-2z"
       fill="#000000"
       opacity=".75"
       id="path51" />
  </g>
  <g
     id="menu-pressed"
     transform="translate(5,-564.36)">
    <rect
       x="291"
       y="565.36"
       width="36"
       height="34"
       fill="none"
       id="rect52" />
    <rect
       x="291"
       y="565.36"
       width="36"
       height="1"
       fill="#ffffff"
       opacity=".75"
       id="rect53" />
    <circle
       cx="309"
       cy="582.36"
       r="11"
       fill="#ffffff"
       opacity=".6"
       id="circle53" />
    <path
       d="m304 581.36a1 1 0 0 0-1 1 1 1 0 0 0 1 1 1 1 0 0 0 1-1 1 1 0 0 0-1-1zm5 0a1 1 0 0 0-1 1 1 1 0 0 0 1 1 1 1 0 0 0 1-1 1 1 0 0 0-1-1zm5 0a1 1 0 0 0-1 1 1 1 0 0 0 1 1 1 1 0 0 0 1-1 1 1 0 0 0-1-1z"
       fill="#000000"
       opacity=".75"
       id="path53" />
  </g>
  <g
     id="stick-inactive"
     transform="translate(5,-564.36)">
    <rect
       x="331"
       y="688.36"
       width="36"
       height="34"
       fill="none"
       id="rect54" />
    <rect
       x="331"
       y="688.36"
       width="36"
       height="1"
       fill="#ffffff"
       opacity=".5"
       id="rect55" />
    <path
       d="m349 699.36a6 6 0 0 0-6 6 6 6 0 0 0 6 6 6 6 0 0 0 6-6 6 6 0 0 0-6-6zm0 1a5 5 0 0 1 5 5 5 5 0 0 1-5 5 5 5 0 0 1-5-5 5 5 0 0 1 5-5z"
       fill="#000000"
       opacity=".3"
       id="path55" />
  </g>
  <g
     id="shade-inactive"
     transform="translate(5,-564.36)">
    <rect
       x="331"
       y="606.36"
       width="36"
       height="34"
       fill="none"
       id="rect56" />
    <rect
       x="331"
       y="606.36"
       width="36"
       height="1"
       fill="#ffffff"
       opacity=".5"
       id="rect57" />
    <path
       d="m349 619.83-6.3633 6.3633 0.70703 0.70703 5.6562-5.6562 5.6562 5.6562 0.70703-0.70703-5.6562-5.6562z"
       fill="#000000"
       opacity=".3"
       id="path57" />
  </g>
  <g
     id="shade-toggled-inactive"
     transform="translate(5,-564.36)">
    <rect
       x="331"
       y="647.36"
       width="36"
       height="34"
       fill="none"
       id="rect58" />
    <rect
       x="331"
       y="647.36"
       width="36"
       height="1"
       fill="#ffffff"
       opacity=".5"
       id="rect59" />
    <path
       d="m349 667.9-6.3633-6.3633 0.70703-0.70703 5.6562 5.6562 5.6562-5.6562 0.70703 0.70703-5.6562 5.6562z"
       fill="#000000"
       opacity=".3"
       id="path59" />
  </g>
  <g
     id="stick-toggled-inactive"
     transform="translate(5,-564.36)">
    <rect
       x="331"
       y="730.36"
       width="36"
       height="34"
       fill="none"
       id="rect60" />
    <rect
       x="331"
       y="730.36"
       width="36"
       height="1"
       fill="#ffffff"
       opacity=".5"
       id="rect61" />
    <path
       d="m349 741.36a6 6 0 0 0-6 6 6 6 0 0 0 6 6 6 6 0 0 0 6-6 6 6 0 0 0-6-6zm0 1a5 5 0 0 1 5 5 5 5 0 0 1-5 5 5 5 0 0 1-5-5 5 5 0 0 1 5-5zm0 3a2 2 0 0 0-2 2 2 2 0 0 0 2 2 2 2 0 0 0 2-2 2 2 0 0 0-2-2z"
       fill="#000000"
       opacity=".3"
       id="path61" />
  </g>
  <g
     id="menu-inactive"
     transform="translate(5,-564.36)">
    <rect
       x="331"
       y="565.36"
       width="36"
       height="34"
       fill="none"
       id="rect62" />
    <rect
       x="331"
       y="565.36"
       width="36"
       height="1"
       fill="#ffffff"
       opacity=".5"
       id="rect63" />
    <path
       d="m344 581.36a1 1 0 0 0-1 1 1 1 0 0 0 1 1 1 1 0 0 0 1-1 1 1 0 0 0-1-1zm5 0a1 1 0 0 0-1 1 1 1 0 0 0 1 1 1 1 0 0 0 1-1 1 1 0 0 0-1-1zm5 0a1 1 0 0 0-1 1 1 1 0 0 0 1 1 1 1 0 0 0 1-1 1 1 0 0 0-1-1z"
       fill="#000000"
       opacity=".3"
       id="path63" />
  </g>
  <use
     id="top-right-active"
     transform="matrix(-1,0,0,1,818,0)"
     width="100%"
     height="100%"
     xlink:href="#top-left-active" />
  <g
     id="close-active"
     transform="translate(5,-564.36)">
    <rect
       x="21"
       y="585.36"
       width="36"
       height="34"
       fill="none"
       id="rect64" />
    <rect
       x="21"
       y="585.36"
       width="36"
       height="1"
       fill="#ffffff"
       opacity=".75"
       id="rect65" />
    <circle
       cx="39"
       cy="602.36"
       r="11"
       fill="#ffffff"
       opacity=".65"
       id="circle65" />
    <path
       d="m35.465 598.33c-0.12775 0-0.2555 0.0486-0.35339 0.14649-0.19578 0.19586-0.19578 0.51116 0 0.70703l3.1816 3.1816-3.1816 3.1816c-0.19578 0.19586-0.19578 0.51116 0 0.70703 0.19578 0.19586 0.51118 0.19586 0.70704 0l3.1816-3.1816 3.1816 3.1816c0.19578 0.19586 0.51114 0.19586 0.70704 0 0.19578-0.19586 0.19578-0.51116 0-0.70703l-3.1816-3.1816 3.1816-3.1816c0.19578-0.19586 0.19578-0.51116 0-0.70703-0.19578-0.19586-0.51118-0.19586-0.70704 0l-3.1816 3.1816-3.1816-3.1816c-0.09789-0.0979-0.22564-0.14649-0.35339-0.14649z"
       fill="#000000"
       opacity=".6"
       id="path65" />
  </g>
  <g
     id="maximize-active"
     transform="translate(5,-564.36)">
    <rect
       x="21"
       y="626.36"
       width="36"
       height="34"
       fill="none"
       id="rect66" />
    <rect
       x="21"
       y="626.36"
       width="36"
       height="1"
       fill="#ffffff"
       opacity=".75"
       id="rect67" />
    <circle
       cx="39"
       cy="643.36"
       r="11"
       fill="#ffffff"
       opacity=".65"
       id="circle67" />
    <path
       d="m37 639.36c-1.108 0-2 0.892-2 2v4c0 1.108 0.89201 2 2 2h4c1.108 0 2-0.892 2-2v-4c0-1.108-0.89201-2-2-2zm0 1h4c0.554 0 1 0.44602 1 1v4c0 0.55398-0.44602 1-1 1h-4c-0.55397 0-0.99999-0.44602-0.99999-1v-4c0-0.55398 0.44602-1 0.99999-1z"
       fill="#000000"
       opacity=".6"
       id="path67" />
  </g>
  <g
     id="hide-active"
     transform="translate(5,-564.36)">
    <rect
       x="21"
       y="667.36"
       width="36"
       height="34"
       fill="none"
       id="rect68" />
    <rect
       x="21"
       y="667.36"
       width="36"
       height="1"
       fill="#ffffff"
       opacity=".75"
       id="rect69" />
    <circle
       cx="39"
       cy="684.42"
       r="11"
       fill="#ffffff"
       opacity=".65"
       id="circle69" />
    <rect
       x="35"
       y="684.36"
       width="8"
       height="1"
       rx=".5"
       ry=".5"
       fill="#000000"
       opacity=".6"
       id="rect70" />
  </g>
  <g
     id="maximize-toggled-active"
     transform="translate(5,-564.36)">
    <rect
       x="21"
       y="708.36"
       width="36"
       height="34"
       fill="none"
       id="rect71" />
    <rect
       x="21"
       y="708.36"
       width="36"
       height="1"
       fill="#ffffff"
       opacity=".75"
       id="rect72" />
    <circle
       cx="39"
       cy="725.36"
       r="11"
       fill="#ffffff"
       opacity=".65"
       id="circle72" />
    <path
       d="m37 723.36c-1.108 0-2 0.892-2 2v2c0 1.108 0.892 2 2 2h2c1.108 0 2-0.892 2-2v-2c0-1.108-0.892-2-2-2zm0 1h2c0.554 0 1 0.446 1 1v2c0 0.554-0.446 1-1 1h-2c-0.554 0-1-0.446-1-1v-2c0-0.554 0.446-1 1-1z"
       fill="#000000"
       opacity=".6"
       id="path72" />
    <path
       d="m39 721.36c-1.108 0-2 0.892-2 2h1c0-0.554 0.446-1 1-1h2c0.554 0 1 0.446 1 1v2c0 0.554-0.446 1-1 1v1c1.108 0 2-0.892 2-2v-2c0-1.108-0.892-2-2-2z"
       fill="#000000"
       opacity=".35"
       id="path73" />
  </g>
  <g
     id="close-inactive"
     transform="translate(44,-564.36)">
    <rect
       x="101"
       y="585.36"
       width="36"
       height="34"
       fill="none"
       id="rect73" />
    <rect
       x="101"
       y="585.36"
       width="36"
       height="1"
       fill="#ffffff"
       opacity=".5"
       id="rect74" />
    <circle
       cx="119"
       cy="602.36"
       r="11"
       fill="#ffffff"
       opacity=".05"
       id="circle74" />
    <path
       d="m115.46 598.33c-0.12775 0-0.2555 0.0486-0.35339 0.14649-0.19578 0.19586-0.19578 0.51116 0 0.70703l3.1816 3.1816-3.1816 3.1816c-0.19578 0.19586-0.19578 0.51116 0 0.70703 0.19578 0.19586 0.51118 0.19586 0.70704 0l3.1816-3.1816 3.1816 3.1816c0.19578 0.19586 0.51114 0.19586 0.70704 0 0.19578-0.19586 0.19578-0.51116 0-0.70703l-3.1816-3.1816 3.1816-3.1816c0.19578-0.19586 0.19578-0.51116 0-0.70703-0.19578-0.19586-0.51117-0.19586-0.70704 0l-3.1816 3.1816-3.1816-3.1816c-0.0979-0.0979-0.22564-0.14649-0.35339-0.14649z"
       fill="#000000"
       opacity=".26"
       id="path74" />
  </g>
  <g
     id="maximize-inactive"
     transform="translate(44,-564.36)">
    <rect
       x="101"
       y="626.36"
       width="36"
       height="34"
       fill="none"
       id="rect75" />
    <rect
       x="101"
       y="626.36"
       width="36"
       height="1"
       fill="#ffffff"
       opacity=".5"
       id="rect76" />
    <circle
       cx="119"
       cy="643.36"
       r="11"
       fill="#ffffff"
       opacity=".05"
       id="circle76" />
    <path
       d="m117 639.36c-1.108 0-2 0.892-2 2v4c0 1.108 0.89201 2 2 2h4c1.108 0 2-0.892 2-2v-4c0-1.108-0.89201-2-2-2zm0 1h4c0.554 0 1 0.44602 1 1v4c0 0.55398-0.44602 1-1 1h-4c-0.55397 0-0.99999-0.44602-0.99999-1v-4c0-0.55398 0.44603-1 0.99999-1z"
       fill="#000000"
       opacity=".26"
       id="path76" />
  </g>
  <g
     id="hide-inactive"
     transform="translate(44,-564.36)">
    <rect
       x="101"
       y="667.36"
       width="36"
       height="34"
       fill="none"
       id="rect77" />
    <rect
       x="101"
       y="667.36"
       width="36"
       height="1"
       fill="#ffffff"
       opacity=".5"
       id="rect78" />
    <circle
       cx="119"
       cy="684.36"
       r="11"
       fill="#ffffff"
       opacity=".05"
       id="circle78" />
    <rect
       x="115"
       y="684.36"
       width="8"
       height="1"
       rx=".5"
       ry=".5"
       fill="#000000"
       opacity=".26"
       id="rect79" />
  </g>
  <g
     id="maximize-toggled-inactive"
     transform="translate(44,-564.36)">
    <rect
       x="101"
       y="708.36"
       width="36"
       height="34"
       fill="none"
       id="rect80" />
    <rect
       x="101"
       y="708.36"
       width="36"
       height="1"
       fill="#ffffff"
       opacity=".5"
       id="rect81" />
    <circle
       cx="119"
       cy="725.36"
       r="11"
       fill="#ffffff"
       opacity=".05"
       id="circle81" />
    <g
       transform="translate(109,717.36)"
       fill="#000000"
       opacity=".26"
       id="g82">
      <path
         d="m8 6c-1.108 0-2 0.892-2 2v2c0 1.108 0.892 2 2 2h2c1.108 0 2-0.892 2-2v-2c0-1.108-0.892-2-2-2zm0 1h2c0.554 0 1 0.446 1 1v2c0 0.554-0.446 1-1 1h-2c-0.554 0-1-0.446-1-1v-2c0-0.554 0.446-1 1-1z"
         id="path81" />
      <path
         d="m10 4c-1.108 0-2 0.892-2 2h1c0-0.554 0.446-1 1-1h2c0.554 0 1 0.446 1 1v2c0 0.554-0.446 1-1 1v1c1.108 0 2-0.892 2-2v-2c0-1.108-0.892-2-2-2z"
         opacity=".35"
         id="path82" />
    </g>
  </g>
  <use
     id="top-right-inactive"
     transform="matrix(-1,0,0,1,846,0)"
     xlink:href="#top-left-inactive" />
  <g
     id="top-left-active">
    <path
       d="m399 93v1h-3v1h-2v1h-1v1h-1v1h-1v1h-1v2h-1v26h12v-34z"
       fill="none"
       id="path83" />
    <path
       d="m399 93v1h2v-1zm0 1h-3v1h3zm-3 1h-2v1h2zm-2 1h-1v1h1zm-1 1h-1v1h1zm-1 1h-1v1h1zm-1 1h-1v2h1zm-1 2h-1v1h1z"
       fill="url(#linearGradient30)"
       opacity=".75"
       id="path84" />
  </g>
  <g
     id="top-left-inactive">
    <path
       d="m413 93v1h-3v1h-2v1h-1v1h-1v1h-1v1h-1v2h-1v26h12v-34z"
       fill="none"
       id="path85" />
    <path
       d="m413 93v1h2v-1zm0 1h-3v1h3zm-3 1h-2v1h2zm-2 1h-1v1h1zm-1 1h-1v1h1zm-1 1h-1v1h1zm-1 1h-1v2h1zm-1 2h-1v1h1z"
       fill="url(#linearGradient38)"
       opacity=".5"
       id="path86" />
  </g>
</svg>
