/* XPM */
static char *bottom_left_active[] = {
/* columns rows colors chars-per-pixel */
"20 20 2 1 ",
"  c None",
". c #3A3D41 s active_color_2",
/* pixels */
"....                ",
"....                ",
"....                ",
"....                ",
"....                ",
"....                ",
"....                ",
"....                ",
"....                ",
"....                ",
"....                ",
"....                ",
"....                ",
"....                ",
"....                ",
"....                ",
"....................",
"....................",
"  ..................",
"  .................."
};
