/* XPM */
static char *top_right_active[] = {
/* columns rows colors chars-per-pixel */
"24 68 2 1 ",
"  c None",
". c #3A3D41 s active_color_2",
/* pixels */
"....                    ",
"....                    ",
"..........              ",
"..........              ",
"..............          ",
"..............          ",
"................        ",
"................        ",
"..................      ",
"..................      ",
"....................    ",
"....................    ",
"......................  ",
"......................  ",
"......................  ",
"......................  ",
"........................",
"........................",
"........................",
"........................",
"........................",
"........................",
"........................",
"........................",
"........................",
"........................",
"........................",
"........................",
"........................",
"........................",
"........................",
"........................",
"........................",
"........................",
"........................",
"........................",
"........................",
"........................",
"........................",
"........................",
"........................",
"........................",
"........................",
"........................",
"........................",
"........................",
"........................",
"........................",
"........................",
"........................",
"........................",
"........................",
"........................",
"........................",
"........................",
"........................",
"........................",
"........................",
"........................",
"........................",
"........................",
"........................",
"........................",
"........................",
"........................",
"........................",
"........................",
"........................"
};
