/* XPM */
static char *top_left_inactive[] = {
/* columns rows colors chars-per-pixel */
"24 68 2 1 ",
"  c None",
". c #44474B s inactive_color_2",
/* pixels */
"                    ....",
"                    ....",
"              ..........",
"              ..........",
"          ..............",
"          ..............",
"        ................",
"        ................",
"      ..................",
"      ..................",
"    ....................",
"    ....................",
"  ......................",
"  ......................",
"  ......................",
"  ......................",
"........................",
"........................",
"........................",
"........................",
"........................",
"........................",
"........................",
"........................",
"........................",
"........................",
"........................",
"........................",
"........................",
"........................",
"........................",
"........................",
"........................",
"........................",
"........................",
"........................",
"........................",
"........................",
"........................",
"........................",
"........................",
"........................",
"........................",
"........................",
"........................",
"........................",
"........................",
"........................",
"........................",
"........................",
"........................",
"........................",
"........................",
"........................",
"........................",
"........................",
"........................",
"........................",
"........................",
"........................",
"........................",
"........................",
"........................",
"........................",
"........................",
"........................",
"........................",
"........................"
};
