/* XPM */
static char *top_right_inactive[] = {
/* columns rows colors chars-per-pixel */
"12 34 2 1 ",
"  c None",
". c #44474B s inactive_color_2",
/* pixels */
"..          ",
".....       ",
".......     ",
"........    ",
".........   ",
"..........  ",
"........... ",
"........... ",
"............",
"............",
"............",
"............",
"............",
"............",
"............",
"............",
"............",
"............",
"............",
"............",
"............",
"............",
"............",
"............",
"............",
"............",
"............",
"............",
"............",
"............",
"............",
"............",
"............",
"............"
};
